<svg width="32" height="32" viewBox="0 0 32 32" fill="none" xmlns="http://www.w3.org/2000/svg">
<g clip-path="url(#clip0_48_118)">
<mask id="mask0_48_118" style="mask-type:alpha" maskUnits="userSpaceOnUse" x="0" y="0" width="32" height="32">
<circle cx="16" cy="16" r="16" fill="black"/>
</mask>
<g mask="url(#mask0_48_118)">
<path d="M32 16C32 24.8366 24.8366 32 16 32C7.16344 32 0 24.8366 0 16C0 7.16344 7.16344 0 16 0C24.8366 0 32 7.16344 32 16Z" fill="url(#paint0_linear_48_118)"/>
<path d="M31.2889 16C31.2889 7.55618 24.4438 0.711111 16 0.711111C7.55618 0.711111 0.711111 7.55618 0.711111 16C0.711111 24.4438 7.55618 31.2889 16 31.2889V32C7.16344 32 0 24.8366 0 16C0 7.16344 7.16344 0 16 0C24.8366 0 32 7.16344 32 16C32 24.8366 24.8366 32 16 32V31.2889C24.4438 31.2889 31.2889 24.4438 31.2889 16Z" fill="#8D8D8D"/>
<rect x="15.3979" y="21.9932" width="3.07506" height="12.5564" fill="#070707"/>
<path d="M12.3228 23.5312H15.3978V26.6063V26.6063C14.3404 26.6063 13.8117 26.6063 13.4055 26.4059C13.0223 26.2169 12.7122 25.9067 12.5231 25.5235C12.3228 25.1173 12.3228 24.5886 12.3228 23.5312V23.5312Z" fill="#070707"/>
<path d="M9.24805 21.9946C9.24805 21.1454 9.93642 20.457 10.7856 20.457H12.3231V23.5321H10.7856C9.93642 23.5321 9.24805 22.8437 9.24805 21.9946V21.9946Z" fill="#070707"/>
<path d="M21.5483 26.6074H23.0859C23.935 26.6074 24.6234 25.9191 24.6234 25.0699V25.0699C24.6234 24.2208 23.935 23.5324 23.0859 23.5324H21.5483V26.6074Z" fill="#070707"/>
<path d="M21.5479 26.6074L21.5479 27.7406C21.5479 28.8131 20.6784 29.6825 19.606 29.6825L18.4728 29.6825L18.4728 26.6074L21.5479 26.6074Z" fill="#070707"/>
<path d="M18.4678 17.7324L18.4678 19.2699C18.4678 20.1191 17.7794 20.8075 16.9302 20.8075V20.8075C16.0811 20.8075 15.3927 20.1191 15.3927 19.2699L15.3927 17.7324L18.4678 17.7324Z" fill="#060606"/>
<path d="M21.5444 14.6592V14.6592C21.5444 15.7166 21.5444 16.2453 21.344 16.6515C21.155 17.0347 20.8449 17.3448 20.4617 17.5338C20.0555 17.7342 19.5268 17.7342 18.4694 17.7342V17.7342L18.4694 14.6592L21.5444 14.6592Z" fill="#060606"/>
<path d="M9.25195 13.1272C9.25195 12.2792 9.93937 11.5918 10.7873 11.5918H12.3227V14.6626H10.7873C9.93937 14.6626 9.25195 13.9752 9.25195 13.1272V13.1272Z" fill="#060606"/>
<path d="M12.3232 10.4643C12.3232 9.39187 13.1927 8.52246 14.2651 8.52246H15.394V11.5932H12.3232V10.4643Z" fill="#060606"/>
<path d="M15.3936 6.97875C15.3936 6.13078 16.081 5.44336 16.9289 5.44336V5.44336C17.7769 5.44336 18.4643 6.13078 18.4643 6.97875V8.51413H15.3936V6.97875Z" fill="#060606"/>
<path d="M12.3208 14.6641H15.3916V17.7348H14.2627C13.1902 17.7348 12.3208 16.8654 12.3208 15.7929V14.6641Z" fill="#060606"/>
<path d="M18.4653 11.5869L18.4653 8.51188V8.51188C19.5227 8.51188 20.0514 8.51188 20.4576 8.71227C20.8408 8.90131 21.151 9.21144 21.34 9.59462C21.5404 10.0008 21.5404 10.5295 21.5404 11.5869V11.5869L18.4653 11.5869Z" fill="#060606"/>
<path d="M21.5415 14.6611L21.5415 11.5861L23.079 11.5861C23.9282 11.5861 24.6166 12.2745 24.6166 13.1236V13.1236C24.6166 13.9728 23.9282 14.6611 23.079 14.6611L21.5415 14.6611Z" fill="#060606"/>
<path d="M11.3896 23.0527H14.457V21.5234H17.5322V26.1357H20.6064V27.2686C20.6064 28.341 19.7375 29.21 18.665 29.21H17.5322V34.0801H14.457V26.127C13.4043 26.127 12.877 26.1267 12.4717 25.9268C12.0887 25.7378 11.7789 25.4279 11.5898 25.0449C11.3895 24.6388 11.3887 24.1099 11.3887 23.0527H9.85254C9.0035 23.0527 8.31463 22.3646 8.31445 21.5156C8.31445 20.6665 9.00339 19.9775 9.85254 19.9775H11.3896V23.0527ZM22.1445 23.0615C22.9936 23.0615 23.6825 23.7496 23.6826 24.5986C23.6826 25.4478 22.9937 26.1367 22.1445 26.1367H20.6074V23.0615H22.1445Z" fill="#B1B1B1"/>
<path d="M17.5269 17.2617L17.5269 18.7992C17.5269 19.6484 16.8385 20.3368 15.9893 20.3368V20.3368C15.1402 20.3368 14.4518 19.6484 14.4518 18.7992L14.4518 17.2617L17.5269 17.2617Z" fill="white"/>
<path d="M20.6035 14.1875V14.1875C20.6035 15.2449 20.6035 15.7736 20.4031 16.1798C20.2141 16.563 19.904 16.8731 19.5208 17.0621C19.1146 17.2625 18.5859 17.2625 17.5285 17.2625V17.2625L17.5285 14.1875L20.6035 14.1875Z" fill="white"/>
<path d="M8.31055 12.6565C8.31055 11.8085 8.99796 11.1211 9.84593 11.1211H11.3813V14.1919H9.84593C8.99796 14.1919 8.31055 13.5044 8.31055 12.6565V12.6565Z" fill="white"/>
<path d="M11.3818 9.99365C11.3818 8.92117 12.2512 8.05176 13.3237 8.05176H14.4526V11.1225H11.3818V9.99365Z" fill="white"/>
<path d="M14.4517 6.50804C14.4517 5.66007 15.1391 4.97266 15.987 4.97266V4.97266C16.835 4.97266 17.5224 5.66007 17.5224 6.50804V8.04343H14.4517V6.50804Z" fill="white"/>
<path d="M11.3789 14.1934H14.4497V17.2641H13.3208C12.2483 17.2641 11.3789 16.3947 11.3789 15.3222V14.1934Z" fill="white"/>
<path d="M17.5239 11.1162L17.5239 8.04117V8.04117C18.5813 8.04117 19.11 8.04117 19.5162 8.24157C19.8994 8.4306 20.2096 8.74074 20.3986 9.12392C20.599 9.53012 20.599 10.0588 20.599 11.1162V11.1162L17.5239 11.1162Z" fill="white"/>
<path d="M20.6001 14.1904L20.6001 11.1154L22.1376 11.1154C22.9868 11.1154 23.6752 11.8038 23.6752 12.6529V12.6529C23.6752 13.5021 22.9868 14.1904 22.1376 14.1904L20.6001 14.1904Z" fill="white"/>
</g>
</g>
<defs>
<linearGradient id="paint0_linear_48_118" x1="23.7746" y1="30.2609" x2="6.55716" y2="3.47826" gradientUnits="userSpaceOnUse">
<stop/>
<stop offset="1" stop-color="#565656"/>
</linearGradient>
<clipPath id="clip0_48_118">
<rect width="32" height="32" fill="white"/>
</clipPath>
</defs>
</svg>
