<svg width="390" height="123" viewBox="0 0 390 123" fill="none" xmlns="http://www.w3.org/2000/svg">
<g clip-path="url(#clip0_39_533)">
<path d="M261.896 82.5312C258.995 82.5312 256.298 82.0779 253.804 81.1712C251.356 80.2646 249.203 78.9726 247.344 77.2952C245.531 75.6179 244.103 73.6232 243.06 71.3112C242.063 68.9539 241.564 66.3472 241.564 63.4912C241.564 60.5446 242.086 57.8699 243.128 55.4672C244.171 53.0646 245.622 51.0019 247.48 49.2792C249.339 47.5566 251.47 46.2419 253.872 45.3352C256.275 44.3832 258.814 43.9072 261.488 43.9072C263.755 43.9072 265.886 44.2246 267.88 44.8592C269.875 45.4486 271.62 46.3099 273.116 47.4432C274.658 48.5312 275.836 49.8459 276.652 51.3872C277.514 52.9286 277.944 54.6059 277.944 56.4192C277.944 58.7766 277.264 60.7486 275.904 62.3352C274.544 63.9219 272.731 65.1912 270.464 66.1432C268.243 67.0499 265.795 67.6846 263.12 68.0472C260.446 68.3646 257.816 68.4779 255.232 68.3872C254.824 68.3419 254.348 68.3192 253.804 68.3192C253.26 68.3192 252.762 68.3192 252.308 68.3192C251.9 68.2739 251.628 68.2512 251.492 68.2512C251.764 69.4752 252.399 70.6086 253.396 71.6512C254.439 72.6939 255.708 73.5099 257.204 74.0992C258.7 74.6432 260.31 74.9152 262.032 74.9152C263.528 74.9152 264.979 74.6659 266.384 74.1672C267.79 73.6686 269.082 72.9886 270.26 72.1272C270.305 72.0945 270.348 72.0618 270.392 72.0289C272.166 70.6898 274.7 70.2929 276.476 71.6294L279.848 74.1672C278.398 76.0712 276.72 77.6579 274.816 78.9272C272.912 80.1512 270.872 81.0579 268.696 81.6472C266.52 82.2366 264.254 82.5312 261.896 82.5312ZM255.572 61.5192C257.068 61.5192 258.564 61.4512 260.06 61.3152C261.602 61.1792 263.007 60.9299 264.276 60.5672C265.591 60.1592 266.634 59.6152 267.404 58.9352C268.22 58.2099 268.628 57.3032 268.628 56.2152C268.628 55.3086 268.311 54.5152 267.676 53.8352C267.087 53.1099 266.271 52.5432 265.228 52.1352C264.231 51.6819 263.075 51.4552 261.76 51.4552C259.675 51.4552 257.816 51.9312 256.184 52.8832C254.598 53.8352 253.351 55.0819 252.444 56.6232C251.538 58.1192 251.039 59.6832 250.948 61.3152C251.492 61.3606 252.172 61.4059 252.988 61.4512C253.804 61.4966 254.666 61.5192 255.572 61.5192Z" fill="#232323"/>
<path d="M237.446 53.9717C237.038 53.8357 236.63 53.7676 236.222 53.7676C235.859 53.7223 235.474 53.6992 235.066 53.6992C233.299 53.6992 231.689 54.107 230.238 54.9229C228.833 55.7388 227.722 56.9407 226.906 58.5273C226.141 60.0149 225.734 61.841 225.687 64.0059L225.682 64.4434V82.0557H216.094V44.3828H225.682V53.0195C226.543 50.2089 227.994 47.9875 230.034 46.3555C231.093 45.5272 232.25 44.909 233.507 44.501C235.608 43.819 237.446 45.6981 237.446 47.9072V53.9717Z" fill="#232323"/>
<path d="M184.132 82.5312C180.823 82.5312 177.899 81.7152 175.36 80.0832C172.822 78.4059 170.827 76.1166 169.376 73.2152C167.926 70.2686 167.2 66.9366 167.2 63.2192C167.2 59.4566 167.926 56.1246 169.376 53.2232C170.827 50.3219 172.822 48.0552 175.36 46.4232C177.899 44.7459 180.823 43.9072 184.132 43.9072C187.124 43.9072 189.731 44.6779 191.952 46.2192C194.174 47.7606 195.783 49.8912 196.78 52.6112V44.3832H206.436V82.0552H201.812C200.271 82.0552 199.047 81.6019 198.14 80.6952C197.234 79.7432 196.78 78.4966 196.78 76.9552V73.7592C195.783 76.5246 194.174 78.6779 191.952 80.2192C189.731 81.7606 187.124 82.5312 184.132 82.5312ZM186.852 74.1672C188.62 74.1672 190.252 73.7366 191.748 72.8752C193.244 72.0139 194.446 70.7672 195.352 69.1352C196.304 67.5032 196.78 65.5312 196.78 63.2192C196.78 60.8619 196.304 58.8672 195.352 57.2352C194.446 55.6032 193.244 54.3792 191.748 53.5632C190.252 52.7019 188.62 52.2712 186.852 52.2712C185.175 52.2712 183.566 52.7019 182.024 53.5632C180.528 54.3792 179.304 55.6032 178.352 57.2352C177.446 58.8672 176.992 60.8619 176.992 63.2192C176.992 65.5312 177.446 67.5032 178.352 69.1352C179.304 70.7672 180.528 72.0139 182.024 72.8752C183.566 73.7366 185.175 74.1672 186.852 74.1672Z" fill="#232323"/>
<path d="M144.632 82.5312C141.005 82.5312 137.787 81.7379 134.976 80.1512C132.165 78.5646 129.967 76.3206 128.38 73.4192C126.793 70.4726 126 67.0499 126 63.1512C126 59.2526 126.771 55.8752 128.312 53.0192C129.899 50.1179 132.097 47.8739 134.908 46.2872C137.719 44.7006 140.96 43.9072 144.632 43.9072C146.627 43.9072 148.508 44.1112 150.276 44.5192C152.089 44.9272 153.721 45.5846 155.172 46.4912C156.623 47.3526 157.915 48.5312 159.048 50.0272C159.46 50.5549 159.845 51.1305 160.204 51.7542C161.316 53.6908 160.092 56.0187 157.962 56.692L152.588 58.3912C151.908 56.3059 150.888 54.7192 149.528 53.6312C148.213 52.5432 146.559 51.9992 144.564 51.9992C142.796 51.9992 141.255 52.4299 139.94 53.2912C138.625 54.1526 137.605 55.4219 136.88 57.0992C136.155 58.7312 135.792 60.7486 135.792 63.1512C135.792 65.5539 136.155 67.5939 136.88 69.2712C137.605 70.9486 138.625 72.2406 139.94 73.1472C141.255 74.0086 142.796 74.4392 144.564 74.4392C146.876 74.4392 148.712 73.7819 150.072 72.4672C151.477 71.1072 152.429 69.3846 152.928 67.2992L158.27 68.5469C160.452 69.0566 161.824 71.293 160.773 73.272C160.286 74.1891 159.711 75.0769 159.048 75.9352C157.552 77.9299 155.625 79.5392 153.268 80.7632C150.911 81.9419 148.032 82.5312 144.632 82.5312Z" fill="#232323"/>
<path d="M361.835 82.2393H352.179V44.5674H356.835C359.596 44.5674 361.835 46.806 361.835 49.5674V82.2393Z" fill="#232323"/>
<path d="M316.698 64.9678C316.698 68.005 317.469 70.3618 319.011 72.0391C320.552 73.6711 322.569 74.4873 325.062 74.4873C326.785 74.4873 328.281 74.0566 329.551 73.1953C330.82 72.2887 331.795 71.0646 332.475 69.5234C333.155 67.9821 333.494 66.2364 333.494 64.2871V44.5674H343.15V82.2393H338.595C337.054 82.2393 335.806 81.7864 334.854 80.8799C333.948 79.9279 333.494 78.6809 333.494 77.1396V74.2305C333.307 74.6985 333.105 75.1473 332.883 75.5752C331.659 78.0232 330.071 79.837 328.122 81.0156C326.218 82.1489 324.11 82.7158 321.798 82.7158C318.806 82.7158 316.2 82.0807 313.979 80.8115C311.803 79.5422 310.125 77.7063 308.946 75.3037C307.768 72.9011 307.179 69.9996 307.179 66.5996V44.5674H316.698V64.9678Z" fill="#232323"/>
<path d="M292.182 58.5557C294.086 58.5557 295.673 59.1446 296.942 60.3232C298.212 61.5019 298.846 62.9532 298.846 64.6758C298.846 66.3981 298.211 67.8488 296.942 69.0273C295.673 70.1607 294.086 70.7275 292.182 70.7275C290.278 70.7275 288.691 70.1606 287.422 69.0273C286.153 67.8488 285.518 66.3982 285.518 64.6758C285.518 62.9531 286.153 61.5019 287.422 60.3232C288.691 59.1446 290.278 58.5557 292.182 58.5557Z" fill="#232323"/>
<mask id="mask0_39_533" style="mask-type:alpha" maskUnits="userSpaceOnUse" x="15" y="17" width="90" height="91">
<circle cx="60" cy="62.3115" r="45" fill="black"/>
</mask>
<g mask="url(#mask0_39_533)">
<circle cx="60" cy="62.3115" r="44.0291" fill="url(#paint0_linear_39_533)" stroke="#8D8D8D" stroke-width="1.94189"/>
<rect x="58.3066" y="79.168" width="8.64859" height="35.3149" fill="#070707"/>
<path d="M49.6582 83.4932H58.3068V92.1417H52.7652C51.6777 92.1417 51.1339 92.1417 50.7185 91.9301C50.3531 91.7439 50.056 91.4468 49.8699 91.0814C49.6582 90.666 49.6582 90.1222 49.6582 89.0347V83.4932Z" fill="#070707"/>
<path d="M41.0098 76.7886C41.0098 75.7161 41.8792 74.8467 42.9517 74.8467H49.6584V83.4952H42.9517C41.8792 83.4952 41.0098 82.6258 41.0098 81.5533V76.7886Z" fill="#070707"/>
<path d="M75.605 92.1436H81.1466C82.2341 92.1436 82.7779 92.1436 83.1933 91.9319C83.5587 91.7457 83.8557 91.4487 84.0419 91.0833C84.2536 90.6679 84.2536 90.1241 84.2536 89.0365V86.602C84.2536 85.5145 84.2536 84.9707 84.0419 84.5553C83.8557 84.1899 83.5587 83.8928 83.1933 83.7067C82.7779 83.495 82.2341 83.495 81.1466 83.495H75.605V92.1436Z" fill="#070707"/>
<path d="M75.604 92.1436L75.604 98.8503C75.604 99.9227 74.7346 100.792 73.6621 100.792L66.9555 100.792L66.9555 92.1436L75.604 92.1436Z" fill="#070707"/>
<path d="M66.9399 67.1826L66.9399 72.7241C66.9399 73.8117 66.9399 74.3555 66.7283 74.7709C66.5421 75.1363 66.245 75.4333 65.8797 75.6195C65.4643 75.8312 64.9205 75.8312 63.8329 75.8312L61.3984 75.8312C60.3108 75.8312 59.767 75.8312 59.3516 75.6195C58.9862 75.4333 58.6892 75.1363 58.503 74.7709C58.2913 74.3555 58.2913 73.8117 58.2913 72.7241L58.2913 67.1826L66.9399 67.1826Z" fill="#060606"/>
<path d="M75.5942 58.541L75.5942 64.0825C75.5942 65.1701 75.5942 65.7139 75.3826 66.1293C75.1964 66.4947 74.8993 66.7917 74.5339 66.9779C74.1186 67.1896 73.5748 67.1896 72.4872 67.1896L66.9456 67.1896L66.9456 58.541L75.5942 58.541Z" fill="#060606"/>
<path d="M41.0205 51.854C41.0205 50.7815 41.8899 49.9121 42.9624 49.9121H49.6571V58.5487H42.9624C41.8899 58.5487 41.0205 57.6792 41.0205 56.6068V51.854Z" fill="#060606"/>
<path d="M49.6587 43.2222C49.6587 42.1497 50.5281 41.2803 51.6006 41.2803H58.2952V49.9168H49.6587V43.2222Z" fill="#060606"/>
<path d="M58.2939 35.7271C58.2939 34.6396 58.2939 34.0958 58.5056 33.6804C58.6918 33.315 58.9888 33.0179 59.3542 32.8318C59.7696 32.6201 60.3134 32.6201 61.401 32.6201H63.8235C64.911 32.6201 65.4548 32.6201 65.8702 32.8318C66.2356 33.0179 66.5327 33.315 66.7188 33.6804C66.9305 34.0958 66.9305 34.6396 66.9305 35.7271V41.2567H58.2939V35.7271Z" fill="#060606"/>
<path d="M49.6523 58.5537H58.2889V67.1903H51.5942C50.5218 67.1903 49.6523 66.3208 49.6523 65.2484V58.5537Z" fill="#060606"/>
<path d="M66.9331 49.8984L66.9331 41.2499L72.4747 41.2499C73.5622 41.2499 74.106 41.2499 74.5214 41.4615C74.8868 41.6477 75.1839 41.9448 75.37 42.3102C75.5817 42.7256 75.5817 43.2694 75.5817 44.3569L75.5817 49.8984L66.9331 49.8984Z" fill="#060606"/>
<path d="M75.5854 58.5449L75.5854 49.8964L81.127 49.8964C82.2146 49.8964 82.7584 49.8964 83.1738 50.108C83.5391 50.2942 83.8362 50.5913 84.0224 50.9567C84.234 51.3721 84.234 51.9158 84.234 53.0034L84.234 55.4379C84.234 56.5255 84.234 57.0692 84.0224 57.4846C83.8362 57.85 83.5391 58.1471 83.1738 58.3333C82.7584 58.5449 82.2146 58.5449 81.127 58.5449L75.5854 58.5449Z" fill="#060606"/>
<path d="M47.0332 82.1465H55.6602V77.8457H64.3086V90.8184H72.957V82.1719H78.499C79.5865 82.1719 80.1305 82.1712 80.5459 82.3828C80.9112 82.569 81.2084 82.8661 81.3945 83.2314C81.6062 83.6468 81.6055 84.1908 81.6055 85.2783V87.7129C81.6055 88.8004 81.6062 89.3444 81.3945 89.7598C81.2084 90.1251 80.9112 90.4222 80.5459 90.6084C80.1305 90.82 79.5865 90.8203 78.499 90.8203H72.957V97.5254C72.9568 98.5976 72.0879 99.4668 71.0156 99.4668H64.3086V113.16H55.6602V90.7949H50.1387C49.0512 90.7949 48.5072 90.7947 48.0918 90.583C47.7266 90.3968 47.4293 90.0997 47.2432 89.7344C47.0317 89.3191 47.0322 88.7754 47.0322 87.6885V82.1475H40.3262C39.2539 82.1472 38.3848 81.2774 38.3848 80.2051V75.4404C38.3849 74.3682 39.254 73.4993 40.3262 73.499H47.0332V82.1465Z" fill="#B1B1B1"/>
<path d="M64.2939 65.8604L64.2939 71.4019C64.2939 72.4894 64.2939 73.0332 64.0823 73.4486C63.8961 73.814 63.599 74.1111 63.2337 74.2972C62.8183 74.5089 62.2745 74.5089 61.1869 74.5089L58.7524 74.5089C57.6648 74.5089 57.121 74.5089 56.7056 74.2972C56.3403 74.1111 56.0432 73.814 55.857 73.4486C55.6454 73.0332 55.6454 72.4894 55.6454 71.4019L55.6454 65.8604L64.2939 65.8604Z" fill="white"/>
<path d="M72.9473 57.2148L72.9473 62.7564C72.9473 63.8439 72.9473 64.3877 72.7356 64.8031C72.5494 65.1685 72.2524 65.4656 71.887 65.6517C71.4716 65.8634 70.9278 65.8634 69.8402 65.8634L64.2987 65.8634L64.2987 57.2148L72.9473 57.2148Z" fill="white"/>
<path d="M38.373 50.5317C38.373 49.4593 39.2425 48.5898 40.3149 48.5898H47.0096V57.2264H40.3149C39.2425 57.2264 38.373 56.357 38.373 55.2845V50.5317Z" fill="white"/>
<path d="M47.0107 41.8979C47.0107 40.8255 47.8802 39.9561 48.9526 39.9561H55.6473V48.5926H47.0107V41.8979Z" fill="white"/>
<path d="M55.6455 34.4029C55.6455 33.3154 55.6455 32.7716 55.8572 32.3562C56.0433 31.9908 56.3404 31.6937 56.7058 31.5076C57.1212 31.2959 57.665 31.2959 58.7525 31.2959H61.175C62.2626 31.2959 62.8064 31.2959 63.2218 31.5076C63.5872 31.6937 63.8842 31.9908 64.0704 32.3562C64.2821 32.7716 64.2821 33.3154 64.2821 34.4029V39.9324H55.6455V34.4029Z" fill="white"/>
<path d="M47.0034 57.2295H55.64V65.866H48.9453C47.8728 65.866 47.0034 64.9966 47.0034 63.9242V57.2295Z" fill="white"/>
<path d="M64.2861 48.5752L64.2861 39.9267L69.8277 39.9267C70.9153 39.9267 71.459 39.9267 71.8744 40.1383C72.2398 40.3245 72.5369 40.6216 72.7231 40.9869C72.9347 41.4023 72.9347 41.9461 72.9347 43.0337L72.9347 48.5752L64.2861 48.5752Z" fill="white"/>
<path d="M72.9375 57.2227L72.9375 48.5741L78.4791 48.5741C79.5666 48.5741 80.1104 48.5741 80.5258 48.7858C80.8912 48.9719 81.1883 49.269 81.3744 49.6344C81.5861 50.0498 81.5861 50.5936 81.5861 51.6811L81.5861 54.1156C81.5861 55.2032 81.5861 55.747 81.3744 56.1624C81.1883 56.5278 80.8912 56.8248 80.5258 57.011C80.1104 57.2227 79.5666 57.2227 78.4791 57.2227L72.9375 57.2227Z" fill="white"/>
</g>
</g>
<defs>
<linearGradient id="paint0_linear_39_533" x1="81.8659" y1="102.42" x2="33.442" y2="27.0941" gradientUnits="userSpaceOnUse">
<stop/>
<stop offset="1" stop-color="#565656"/>
</linearGradient>
<clipPath id="clip0_39_533">
<rect width="390" height="123" fill="white"/>
</clipPath>
</defs>
</svg>
